<svg xmlns="http://www.w3.org/2000/svg" width="980" height="780" viewBox="0 0 980 780" role="img" aria-labelledby="title desc">
  <title id="title">Far to Fair Access and Impact logo</title>
  <desc id="desc">A seal-style Far to Fair logo inspired by justice, access, balance, and measurable patient impact.</desc>
  <defs>
    <pattern id="grid" width="34" height="34" patternUnits="userSpaceOnUse">
      <path d="M34 0H0v34" fill="none" stroke="#3a312f" stroke-width="1" opacity=".55"/>
    </pattern>
    <filter id="soft" x="-20%" y="-20%" width="140%" height="140%">
      <feDropShadow dx="0" dy="8" stdDeviation="7" flood-color="#130f0e" flood-opacity=".25"/>
    </filter>
  </defs>
  <rect width="980" height="780" fill="#302827"/>
  <rect width="980" height="780" fill="url(#grid)" opacity=".55"/>
  <g transform="translate(490 278)" filter="url(#soft)">
    <circle r="154" fill="none" stroke="#d8d0c4" stroke-width="4" opacity=".86"/>
    <g fill="none" stroke="#d8d0c4" stroke-width="6" stroke-linecap="round" stroke-linejoin="round" opacity=".92">
      <path d="M-132 43c-10-40 2-87 35-119"/>
      <path d="M-111 82c-27-45-24-111 13-158"/>
      <path d="M132 43c10-40-2-87-35-119"/>
      <path d="M111 82c27-45 24-111-13-158"/>
    </g>
    <g fill="#d8d0c4" opacity=".94">
      <path d="M-126-60c-15-1-27-8-36-20 16 0 29 7 36 20z"/>
      <path d="M-140-31c-15 2-29-3-40-13 16-3 30 2 40 13z"/>
      <path d="M-145 2c-14 5-29 3-42-5 15-6 30-4 42 5z"/>
      <path d="M-139 37c-12 8-27 10-42 5 13-10 28-12 42-5z"/>
      <path d="M-121 69c-9 12-23 18-39 18 10-13 24-20 39-18z"/>
      <path d="M126-60c15-1 27-8 36-20-16 0-29 7-36 20z"/>
      <path d="M140-31c15 2 29-3 40-13-16-3-30 2-40 13z"/>
      <path d="M145 2c14 5 29 3 42-5-15-6-30-4-42 5z"/>
      <path d="M139 37c12 8 27 10 42 5-13-10-28-12-42-5z"/>
      <path d="M121 69c9 12 23 18 39 18-10-13-24-20-39-18z"/>
    </g>
    <g fill="#d8d0c4" stroke="#d8d0c4" stroke-linecap="round" stroke-linejoin="round">
      <path d="M-52 118h104l18 18H-70z"/>
      <rect x="-40" y="94" width="80" height="22" rx="11"/>
      <path d="M-24 94V-24c0-12 10-22 24-22s24 10 24 22V94z"/>
      <path d="M0-72c-14 13-22 24-22 35 0 12 9 21 22 21s22-9 22-21c0-11-8-22-22-35z"/>
      <path d="M0-103v30" stroke-width="8"/>
      <path d="M-80-42c34-9 60-5 80 12 20-17 46-21 80-12" fill="none" stroke-width="10"/>
      <path d="M-80-42v78M80-42v78" fill="none" stroke-width="4"/>
      <path d="M-111 36h62l-12 17h-38z"/>
      <path d="M49 36h62L99 53H61z"/>
      <path d="M-80-42l-31 78M-80-42l31 78M80-42L49 36M80-42l31 78" fill="none" stroke-width="3"/>
      <circle cx="-80" cy="-42" r="10" fill="none" stroke-width="7"/>
      <circle cx="80" cy="-42" r="10" fill="none" stroke-width="7"/>
    </g>
  </g>
  <g text-anchor="middle" fill="#e7ded1">
    <text x="490" y="540" font-family="Georgia, 'Times New Roman', serif" font-size="72" font-weight="700" letter-spacing="3">FAR TO FAIR</text>
    <text x="490" y="604" font-family="Inter, system-ui, -apple-system, Segoe UI, sans-serif" font-size="32" font-weight="800" letter-spacing="18">ACCESS AND IMPACT</text>
  </g>
</svg>
