<svg xmlns="http://www.w3.org/2000/svg" width="64" height="64" viewBox="0 0 64 64" role="img" aria-label="Far to Fair">
  <rect x="4" y="4" width="56" height="56" rx="10" fill="#302827"/>
  <circle cx="32" cy="29" r="20" fill="none" stroke="#ded6ca" stroke-width="2.5"/>
  <path d="M21 21c5-4 17-4 22 0" fill="none" stroke="#ded6ca" stroke-width="4" stroke-linecap="round"/>
  <path d="M32 17v28" stroke="#ded6ca" stroke-width="4" stroke-linecap="round"/>
  <path d="M26 45h12l5 5H21z" fill="#ded6ca"/>
  <path d="M20 24v12M44 24v12" stroke="#ded6ca" stroke-width="2" stroke-linecap="round"/>
  <path d="M14 36h12l-3 5h-6zM38 36h12l-3 5h-6z" fill="#ded6ca"/>
  <path d="M20 24l-6 12M20 24l6 12M44 24l-6 12M44 24l6 12" stroke="#ded6ca" stroke-width="1.5" stroke-linecap="round"/>
  <path d="M24 13c-6 4-10 10-12 17M40 13c6 4 10 10 12 17" fill="none" stroke="#ded6ca" stroke-width="2" stroke-linecap="round" opacity=".82"/>
</svg>
